<svg width="204" height="192" viewBox="0 0 204 192" fill="none" xmlns="http://www.w3.org/2000/svg">
<circle cx="135" cy="69" r="65.5" fill="#FF564F" fill-opacity="0.45" stroke="#2568EF"/>
<circle cx="69" cy="123" r="65.5" fill="#FF9B19" stroke="#2568EF"/>
<path d="M71.5 77.4999C80.8333 66.9999 105.3 52.2999 128.5 77.4999C151.7 102.7 185.167 87.9999 199 77.4999M71.5 97.9142C80.8333 87.4142 105.3 72.7142 128.5 97.9142C151.7 123.114 185.167 108.414 199 97.9142M71.5 120.914C80.8333 110.414 105.3 95.7142 128.5 120.914C151.7 146.114 185.167 131.414 199 120.914M135 123C135 159.451 105.451 189 69 189C32.5492 189 3 159.451 3 123C3 86.5492 32.5492 57 69 57C105.451 57 135 86.5492 135 123ZM201 69C201 105.451 171.451 135 135 135C98.5492 135 69 105.451 69 69C69 32.5492 98.5492 3 135 3C171.451 3 201 32.5492 201 69Z" stroke="#FF564F" stroke-width="5" stroke-linecap="round" stroke-linejoin="round"/>
</svg>
