<svg width="190" height="325" viewBox="0 0 190 325" fill="none" xmlns="http://www.w3.org/2000/svg">
<path d="M0 0H190V325H0V0Z" fill="#C30000"/>
<path fill-rule="evenodd" clip-rule="evenodd" d="M0 175C82.8427 175 150 242.157 150 325H119C119 259.278 65.7219 206 0 206V175ZM90 325C90 275.294 49.7056 235 0 235V266C32.5848 266 59 292.415 59 325H90ZM35 325C35 305.67 19.33 290 0 290V325H35Z" fill="#F9F6EF"/>
<path fill-rule="evenodd" clip-rule="evenodd" d="M88.8857 0C89.204 0.129744 89.522 0.260406 89.8397 0.391983C111.982 9.56347 132.1 23.0063 149.047 39.953C165.994 56.8997 179.437 77.0184 188.608 99.1603C189.084 100.309 189.548 101.463 190 102.62V39.8402C184.169 32.1655 177.812 24.8779 170.967 18.0327C164.511 11.5768 157.662 5.55557 150.466 0H88.8857Z" fill="#F9F6EF"/>
</svg>
