<svg width="1025" height="396" viewBox="0 0 1025 396" fill="none" xmlns="http://www.w3.org/2000/svg">
<path d="M0 0H190V325H0V0Z" fill="#C30000"/>
<path fill-rule="evenodd" clip-rule="evenodd" d="M0 175C82.8427 175 150 242.157 150 325H119C119 259.278 65.7219 206 0 206V175ZM90 325C90 275.294 49.7056 235 0 235V266C32.5848 266 59 292.415 59 325H90ZM35 325C35 305.67 19.33 290 0 290V325H35Z" fill="#F9F6EF"/>
<path fill-rule="evenodd" clip-rule="evenodd" d="M88.8857 0C89.204 0.129744 89.522 0.260406 89.8397 0.391983C111.982 9.56347 132.1 23.0063 149.047 39.953C165.994 56.8997 179.437 77.0184 188.608 99.1603C189.084 100.309 189.548 101.463 190 102.62V39.8402C184.169 32.1655 177.812 24.8779 170.967 18.0327C164.511 11.5768 157.662 5.55557 150.466 0H88.8857Z" fill="#F9F6EF"/>
<path d="M345.536 74.412C342.944 73.116 339.164 72.468 334.196 72.468C329.444 72.468 326.204 73.98 324.476 77.004C322.748 79.812 321.344 84.888 320.264 92.232L318.968 101.304H339.704L336.14 123.336H316.052L295.64 266.868H265.508L285.92 123.336H273.608L276.524 101.304H288.512L290.456 88.02C292.4 73.98 296.18 63.936 301.796 57.888C307.628 51.624 314.864 48.492 323.504 48.492C334.736 48.492 343.376 50.004 349.424 53.028C348.56 59.508 347.264 66.636 345.536 74.412ZM432.965 123.012C429.077 122.58 424.001 122.364 417.737 122.364C411.473 122.364 406.181 124.956 401.861 130.14C397.757 135.324 394.733 144.72 392.789 158.328C391.061 171.72 391.169 180.9 393.113 185.868C395.273 190.836 399.377 193.32 405.425 193.32C409.097 193.32 412.661 192.24 416.117 190.08C419.789 187.704 422.705 185.22 424.865 182.628L432.965 123.012ZM424.865 202.392C412.553 213.408 400.565 218.916 388.901 218.916C372.053 218.916 362.441 208.44 360.065 187.488C359.201 180.144 359.525 171.072 361.037 160.272C362.549 149.256 365.141 139.86 368.813 132.084C372.485 124.308 376.805 117.936 381.773 112.968C391.061 103.896 402.617 99.36 416.441 99.36C432.857 99.36 449.381 100.98 466.013 104.22L450.137 216H424.865V202.392ZM482.911 189.756C483.559 189.972 484.747 190.512 486.475 191.376C488.203 192.24 490.255 193.104 492.631 193.968C498.679 195.912 503.755 196.884 507.859 196.884C511.963 196.884 515.203 196.236 517.579 194.94C520.171 193.428 521.683 190.944 522.115 187.488C522.763 183.816 522.223 180.792 520.495 178.416C518.767 175.824 516.499 173.34 513.691 170.964C511.099 168.588 508.183 166.212 504.943 163.836C501.703 161.244 498.787 158.328 496.195 155.088C490.147 147.96 487.771 139.644 489.067 130.14C490.363 120.636 494.683 113.076 502.027 107.46C509.587 101.628 519.631 98.712 532.159 98.712C541.879 98.712 551.275 100.224 560.347 103.248L555.811 125.28C554.083 125.064 551.059 124.308 546.739 123.012C542.635 121.716 538.207 121.068 533.455 121.068C524.383 121.068 519.307 124.092 518.227 130.14C517.795 132.948 518.443 135.54 520.171 137.916C522.115 140.076 524.491 142.344 527.299 144.72C530.107 146.88 533.239 149.256 536.695 151.848C540.151 154.224 543.283 156.924 546.091 159.948C552.571 166.86 555.055 175.068 553.543 184.572C552.679 194.076 548.575 202.176 541.231 208.872C533.455 215.568 522.871 218.916 509.479 218.916C500.623 218.916 493.927 218.052 489.391 216.324C481.615 213.516 476.755 211.356 474.811 209.844L482.911 189.756ZM638.206 101.304L635.614 123.336H610.666L602.89 178.416C602.026 183.384 602.026 187.056 602.89 189.432C603.754 191.808 605.914 192.996 609.37 192.996C613.042 192.996 616.174 192.564 618.766 191.7C621.358 190.62 623.086 189.972 623.95 189.756V211.14C623.086 211.356 621.79 211.896 620.062 212.76C618.334 213.624 616.39 214.488 614.23 215.352C608.83 217.728 602.782 218.916 596.086 218.916C585.718 218.916 578.698 216.216 575.026 210.816C571.354 205.2 570.382 195.804 572.11 182.628L580.858 123.336H568.546L571.462 101.304H583.774L587.662 73.764L618.442 68.904L613.582 101.304H638.206ZM727.058 125.604C719.93 123.228 713.882 122.04 708.914 122.04C701.354 122.04 695.414 125.064 691.094 131.112C686.774 136.944 683.642 146.448 681.698 159.624C679.97 172.584 680.51 181.764 683.318 187.164C686.342 192.348 690.554 194.94 695.954 194.94C701.57 194.94 706.43 194.184 710.534 192.672C714.638 190.944 717.446 189.864 718.958 189.432L723.17 208.224C711.29 215.352 699.95 218.916 689.15 218.916C658.046 218.916 645.194 199.368 650.594 160.272C655.994 119.232 675.11 98.712 707.942 98.712C717.23 98.712 725.87 100.224 733.862 103.248L727.058 125.604ZM816.212 123.012C812.324 122.58 807.248 122.364 800.984 122.364C794.72 122.364 789.428 124.956 785.108 130.14C781.004 135.324 777.98 144.72 776.036 158.328C774.308 171.72 774.416 180.9 776.36 185.868C778.52 190.836 782.624 193.32 788.672 193.32C792.344 193.32 795.908 192.24 799.364 190.08C803.036 187.704 805.952 185.22 808.112 182.628L816.212 123.012ZM808.112 202.392C795.8 213.408 783.812 218.916 772.148 218.916C755.3 218.916 745.688 208.44 743.312 187.488C742.448 180.144 742.772 171.072 744.284 160.272C745.796 149.256 748.388 139.86 752.06 132.084C755.732 124.308 760.052 117.936 765.02 112.968C774.308 103.896 785.864 99.36 799.688 99.36C816.104 99.36 832.628 100.98 849.26 104.22L833.384 216H808.112V202.392ZM866.158 189.756C866.806 189.972 867.994 190.512 869.722 191.376C871.45 192.24 873.502 193.104 875.878 193.968C881.926 195.912 887.002 196.884 891.106 196.884C895.21 196.884 898.45 196.236 900.826 194.94C903.418 193.428 904.93 190.944 905.362 187.488C906.01 183.816 905.47 180.792 903.742 178.416C902.014 175.824 899.746 173.34 896.938 170.964C894.346 168.588 891.43 166.212 888.19 163.836C884.95 161.244 882.034 158.328 879.442 155.088C873.394 147.96 871.018 139.644 872.314 130.14C873.61 120.636 877.93 113.076 885.274 107.46C892.834 101.628 902.878 98.712 915.406 98.712C925.126 98.712 934.522 100.224 943.594 103.248L939.058 125.28C937.33 125.064 934.306 124.308 929.986 123.012C925.882 121.716 921.454 121.068 916.702 121.068C907.63 121.068 902.554 124.092 901.474 130.14C901.042 132.948 901.69 135.54 903.418 137.916C905.362 140.076 907.738 142.344 910.546 144.72C913.354 146.88 916.486 149.256 919.942 151.848C923.398 154.224 926.53 156.924 929.338 159.948C935.818 166.86 938.302 175.068 936.79 184.572C935.926 194.076 931.822 202.176 924.478 208.872C916.702 215.568 906.118 218.916 892.726 218.916C883.87 218.916 877.174 218.052 872.638 216.324C864.862 213.516 860.002 211.356 858.058 209.844L866.158 189.756ZM1021.45 101.304L1018.86 123.336H993.913L986.137 178.416C985.273 183.384 985.273 187.056 986.137 189.432C987.001 191.808 989.161 192.996 992.617 192.996C996.289 192.996 999.421 192.564 1002.01 191.7C1004.61 190.62 1006.33 189.972 1007.2 189.756V211.14C1006.33 211.356 1005.04 211.896 1003.31 212.76C1001.58 213.624 999.637 214.488 997.477 215.352C992.077 217.728 986.029 218.916 979.333 218.916C968.965 218.916 961.945 216.216 958.273 210.816C954.601 205.2 953.629 195.804 955.357 182.628L964.105 123.336H951.793L954.709 101.304H967.021L970.909 73.764L1001.69 68.904L996.829 101.304H1021.45Z" fill="#C30000"/>
</svg>
