<svg width="757" height="219" viewBox="0 0 757 219" fill="none" xmlns="http://www.w3.org/2000/svg">
<path d="M80.536 26.412C77.944 25.116 74.164 24.468 69.196 24.468C64.444 24.468 61.204 25.98 59.476 29.004C57.748 31.812 56.344 36.888 55.264 44.232L53.968 53.304H74.704L71.14 75.336H51.052L30.64 218.868H0.508L20.92 75.336H8.608L11.524 53.304H23.512L25.456 40.02C27.4 25.98 31.18 15.936 36.796 9.888C42.628 3.624 49.864 0.492003 58.504 0.492003C69.736 0.492003 78.376 2.004 84.424 5.02801C83.56 11.508 82.264 18.636 80.536 26.412ZM167.965 75.012C164.077 74.58 159.001 74.364 152.737 74.364C146.473 74.364 141.181 76.956 136.861 82.14C132.757 87.324 129.733 96.72 127.789 110.328C126.061 123.72 126.169 132.9 128.113 137.868C130.273 142.836 134.377 145.32 140.425 145.32C144.097 145.32 147.661 144.24 151.117 142.08C154.789 139.704 157.705 137.22 159.865 134.628L167.965 75.012ZM159.865 154.392C147.553 165.408 135.565 170.916 123.901 170.916C107.053 170.916 97.4407 160.44 95.0647 139.488C94.2007 132.144 94.5247 123.072 96.0367 112.272C97.5487 101.256 100.141 91.86 103.813 84.084C107.485 76.308 111.805 69.936 116.773 64.968C126.061 55.896 137.617 51.36 151.441 51.36C167.857 51.36 184.381 52.98 201.013 56.22L185.137 168H159.865V154.392ZM217.911 141.756C218.559 141.972 219.747 142.512 221.475 143.376C223.203 144.24 225.255 145.104 227.631 145.968C233.679 147.912 238.755 148.884 242.859 148.884C246.963 148.884 250.203 148.236 252.579 146.94C255.171 145.428 256.683 142.944 257.115 139.488C257.763 135.816 257.223 132.792 255.495 130.416C253.767 127.824 251.499 125.34 248.691 122.964C246.099 120.588 243.183 118.212 239.943 115.836C236.703 113.244 233.787 110.328 231.195 107.088C225.147 99.96 222.771 91.644 224.067 82.14C225.363 72.636 229.683 65.076 237.027 59.46C244.587 53.628 254.631 50.712 267.159 50.712C276.879 50.712 286.275 52.224 295.347 55.248L290.811 77.28C289.083 77.064 286.059 76.308 281.739 75.012C277.635 73.716 273.207 73.068 268.455 73.068C259.383 73.068 254.307 76.092 253.227 82.14C252.795 84.948 253.443 87.54 255.171 89.916C257.115 92.076 259.491 94.344 262.299 96.72C265.107 98.88 268.239 101.256 271.695 103.848C275.151 106.224 278.283 108.924 281.091 111.948C287.571 118.86 290.055 127.068 288.543 136.572C287.679 146.076 283.575 154.176 276.231 160.872C268.455 167.568 257.871 170.916 244.479 170.916C235.623 170.916 228.927 170.052 224.391 168.324C216.615 165.516 211.755 163.356 209.811 161.844L217.911 141.756ZM373.206 53.304L370.614 75.336H345.666L337.89 130.416C337.026 135.384 337.026 139.056 337.89 141.432C338.754 143.808 340.914 144.996 344.37 144.996C348.042 144.996 351.174 144.564 353.766 143.7C356.358 142.62 358.086 141.972 358.95 141.756V163.14C358.086 163.356 356.79 163.896 355.062 164.76C353.334 165.624 351.39 166.488 349.23 167.352C343.83 169.728 337.782 170.916 331.086 170.916C320.718 170.916 313.698 168.216 310.026 162.816C306.354 157.2 305.382 147.804 307.11 134.628L315.858 75.336H303.546L306.462 53.304H318.774L322.662 25.764L353.442 20.904L348.582 53.304H373.206ZM462.058 77.604C454.93 75.228 448.882 74.04 443.914 74.04C436.354 74.04 430.414 77.064 426.094 83.112C421.774 88.944 418.642 98.448 416.698 111.624C414.97 124.584 415.51 133.764 418.318 139.164C421.342 144.348 425.554 146.94 430.954 146.94C436.57 146.94 441.43 146.184 445.534 144.672C449.638 142.944 452.446 141.864 453.958 141.432L458.17 160.224C446.29 167.352 434.95 170.916 424.15 170.916C393.046 170.916 380.194 151.368 385.594 112.272C390.994 71.232 410.11 50.712 442.942 50.712C452.23 50.712 460.87 52.224 468.862 55.248L462.058 77.604ZM551.212 75.012C547.324 74.58 542.248 74.364 535.984 74.364C529.72 74.364 524.428 76.956 520.108 82.14C516.004 87.324 512.98 96.72 511.036 110.328C509.308 123.72 509.416 132.9 511.36 137.868C513.52 142.836 517.624 145.32 523.672 145.32C527.344 145.32 530.908 144.24 534.364 142.08C538.036 139.704 540.952 137.22 543.112 134.628L551.212 75.012ZM543.112 154.392C530.8 165.408 518.812 170.916 507.148 170.916C490.3 170.916 480.688 160.44 478.312 139.488C477.448 132.144 477.772 123.072 479.284 112.272C480.796 101.256 483.388 91.86 487.06 84.084C490.732 76.308 495.052 69.936 500.02 64.968C509.308 55.896 520.864 51.36 534.688 51.36C551.104 51.36 567.628 52.98 584.26 56.22L568.384 168H543.112V154.392ZM601.158 141.756C601.806 141.972 602.994 142.512 604.722 143.376C606.45 144.24 608.502 145.104 610.878 145.968C616.926 147.912 622.002 148.884 626.106 148.884C630.21 148.884 633.45 148.236 635.826 146.94C638.418 145.428 639.93 142.944 640.362 139.488C641.01 135.816 640.47 132.792 638.742 130.416C637.014 127.824 634.746 125.34 631.938 122.964C629.346 120.588 626.43 118.212 623.19 115.836C619.95 113.244 617.034 110.328 614.442 107.088C608.394 99.96 606.018 91.644 607.314 82.14C608.61 72.636 612.93 65.076 620.274 59.46C627.834 53.628 637.878 50.712 650.406 50.712C660.126 50.712 669.522 52.224 678.594 55.248L674.058 77.28C672.33 77.064 669.306 76.308 664.986 75.012C660.882 73.716 656.454 73.068 651.702 73.068C642.63 73.068 637.554 76.092 636.474 82.14C636.042 84.948 636.69 87.54 638.418 89.916C640.362 92.076 642.738 94.344 645.546 96.72C648.354 98.88 651.486 101.256 654.942 103.848C658.398 106.224 661.53 108.924 664.338 111.948C670.818 118.86 673.302 127.068 671.79 136.572C670.926 146.076 666.822 154.176 659.478 160.872C651.702 167.568 641.118 170.916 627.726 170.916C618.87 170.916 612.174 170.052 607.638 168.324C599.862 165.516 595.002 163.356 593.058 161.844L601.158 141.756ZM756.453 53.304L753.861 75.336H728.913L721.137 130.416C720.273 135.384 720.273 139.056 721.137 141.432C722.001 143.808 724.161 144.996 727.617 144.996C731.289 144.996 734.421 144.564 737.013 143.7C739.605 142.62 741.333 141.972 742.197 141.756V163.14C741.333 163.356 740.037 163.896 738.309 164.76C736.581 165.624 734.637 166.488 732.477 167.352C727.077 169.728 721.029 170.916 714.333 170.916C703.965 170.916 696.945 168.216 693.273 162.816C689.601 157.2 688.629 147.804 690.357 134.628L699.105 75.336H686.793L689.709 53.304H702.021L705.909 25.764L736.689 20.904L731.829 53.304H756.453Z" fill="#C30000"/>
</svg>
